<?xml version="1.0" encoding="iso-8859-1"?>
<!-- Generator: Adobe Illustrator 19.0.0, SVG Export Plug-In . SVG Version: 6.00 Build 0)  -->
<svg xmlns="http://www.w3.org/2000/svg" xmlns:xlink="http://www.w3.org/1999/xlink" version="1.1" id="Layer_1" x="0px" y="0px" viewBox="0 0 512 512" style="enable-background:new 0 0 512 512;" xml:space="preserve" width="512px" height="512px">
<g>
	<g>
		<g>
			<path d="M255.979,106.667c29.461,0,53.333-23.872,53.333-53.333C309.312,23.872,285.44,0,255.979,0     c-29.461,0-53.333,23.872-53.333,53.333C202.645,82.795,226.517,106.667,255.979,106.667z" fill="#666666"/>
			<path d="M351.808,392.597l-15.488-78.315c10.645-6.912,16.96-19.861,15.403-33.621l-14.101-100.864     c-3.349-29.525-26.752-51.819-54.4-51.819h-54.464c-27.648,0-51.051,22.272-54.357,51.541l-14.187,101.419     c-1.515,13.525,4.8,26.432,15.445,33.344l-15.467,78.315c-0.619,3.115,0.192,6.379,2.219,8.832     c2.048,2.475,5.056,3.904,8.256,3.904h36.245l17.259,97.856c0.896,5.099,5.312,8.811,10.496,8.811h42.667     c5.184,0,9.6-3.712,10.496-8.811l17.259-97.856h36.245c3.179,0,6.208-1.429,8.256-3.904     C351.616,398.976,352.427,395.712,351.808,392.597z" fill="#666666"/>
		</g>
	</g>
</g>
<g>
</g>
<g>
</g>
<g>
</g>
<g>
</g>
<g>
</g>
<g>
</g>
<g>
</g>
<g>
</g>
<g>
</g>
<g>
</g>
<g>
</g>
<g>
</g>
<g>
</g>
<g>
</g>
<g>
</g>
</svg>
